<?xml version="1.0" encoding="UTF-8"?>
<svg width="512" height="512" viewBox="0 0 512 512" fill="none" xmlns="http://www.w3.org/2000/svg">
    <circle cx="256" cy="256" r="240" fill="#E74C3C"/>
    <path d="M256 96C176.5 96 112 160.5 112 240C112 319.5 176.5 384 256 384C335.5 384 400 319.5 400 240C400 160.5 335.5 96 256 96ZM256 352C194.1 352 144 301.9 144 240C144 178.1 194.1 128 256 128C317.9 128 368 178.1 368 240C368 301.9 317.9 352 256 352Z" fill="white"/>
    <circle cx="208" cy="208" r="32" fill="white"/>
    <circle cx="304" cy="208" r="32" fill="white"/>
    <path d="M256 256C230.5 256 208 278.5 208 304H304C304 278.5 281.5 256 256 256Z" fill="white"/>
</svg>
